<svg xmlns="http://www.w3.org/2000/svg" width="64" height="64">
<path fill="#c97523" d="m 17.3,42.8 c 0,4.1 0,8.3 0,12.5 -1.7,0 -3.5,0 -5.2,0 0,-4.1 0,-8.3 0,-12.5" />
<path fill="#a85613" d="m 14.4,42.8 c 0,4.1 0,8.3 0,12.5 -0.7,0 -1.5,0 -2.3,0 0,-4.1 0,-8.3 0,-12.5" />
<path fill="#8cc928" d="m 27.4,25.6 c 0.0,7.9 -3.3,19.2 -12.7,20.0 C 5.3,44.8 1.9,33.5 2,25.6 1.9,17.6 5.3,6.3 14.7,5.5 24.1,6.2 27.4,17.7 27.4,25.6 Z" />
<path fill="#82b20b" d="M 14.7,45.6 C 10.6,45.6 7.3,42.5 5.4,39.2 1.9,33.2 1.2,25.8 2.6,19.1 3.6,14.5 5.8,9.7 9.9,7.0 11.0,6.0 13.9,5.4 14.4,5.5 12.6,6.1 11.9,8.2 11.2,9.8 9.3,15.4 9.0,21.4 9.1,27.3 c 0.1,5.0 0.6,10.3 2.5,15.0 0.6,1.2 1.4,3.0 3.0,3.1 z" />
<path fill="#e9eaef" d="m 23.4,58.4 c 0,-8.5 0,-17.0 0,-25.5 5.6,-5.4 11.2,-10.8 16.8,-16.3 5.5,5.4 11.0,10.8 16.6,16.3 0,8.5 0,17.0 0,25.5 -11.1,0 -22.3,0 -33.4,0 z" />
<path fill="#85c10d" d="m 43.5,53.0 c 5.6,0.0 11.2,-0.0 16.8,0.0 0.9,0.0 1.7,1.0 1.6,1.9 0,1.1 0,2.2 0,3.3 -6.7,0 -13.4,0 -20.2,0 0.0,-1.2 -0.0,-2.5 0.0,-3.8 0.1,-0.8 0.8,-1.4 1.6,-1.4 z" />
<path fill="#85c10d" d="M 3.7,53.0 H 23.1 c 0.9,0 1.7,0.7 1.7,1.7 v 3.6 H 2 v -3.6 c 0,-0.9 0.7,-1.7 1.7,-1.7 z" />
<path fill="#ea4756" d="M 40.1,21.2 C 33.8,27.2 27.4,33.3 21.1,39.4 20.2,38.6 19.3,37.9 18.4,37.1 25.7,30.3 32.9,23.3 40.1,16.5 47.4,23.3 54.6,30.3 61.9,37.1 61.0,37.9 60.1,38.6 59.2,39.4 52.8,33.3 46.5,27.2 40.1,21.2 Z" />
<rect fill="#a0d9f2" width="12" height="12" x="41" y="39" />
<rect fill="#c97523" width="11" height="19" x="27.5" y="39" />
</svg>
